<svg width="24" height="24" viewBox="0 0 24 24" fill="none" xmlns="http://www.w3.org/2000/svg">
<path d="M2.06202 12.348C1.97868 12.1235 1.97868 11.8765 2.06202 11.652C3.72204 7.62691 7.64605 5.00062 12 5.00062C16.354 5.00062 20.278 7.62691 21.938 11.652C22.0214 11.8765 22.0214 12.1235 21.938 12.348C20.278 16.3731 16.354 18.9994 12 18.9994C7.64605 18.9994 3.72204 16.3731 2.06202 12.348" stroke="#64748B" stroke-width="2" stroke-linecap="round" stroke-linejoin="round"/>
<path d="M9 12C9 13.6557 10.3443 15 12 15C13.6557 15 15 13.6557 15 12C15 10.3443 13.6557 9 12 9C10.3443 9 9 10.3443 9 12V12" stroke="#64748B" stroke-width="2" stroke-linecap="round" stroke-linejoin="round"/>
</svg>
