<svg width="14" height="14" viewBox="0 0 14 14" fill="none" xmlns="http://www.w3.org/2000/svg">
<path d="M0.666504 7.99996H2.6665C3.40239 7.99996 3.99984 8.59741 3.99984 9.33329V11.3333C3.99984 12.0692 3.40239 12.6666 2.6665 12.6666H1.99984C1.26395 12.6666 0.666504 12.0692 0.666504 11.3333V6.66663C0.666504 3.35514 3.35501 0.666626 6.6665 0.666626C9.97799 0.666626 12.6665 3.35514 12.6665 6.66663V11.3333C12.6665 12.0692 12.0691 12.6666 11.3332 12.6666H10.6665C9.93062 12.6666 9.33317 12.0692 9.33317 11.3333V9.33329C9.33317 8.59741 9.93062 7.99996 10.6665 7.99996H12.6665" stroke="#90A1B9" stroke-width="1.33333" stroke-linecap="round" stroke-linejoin="round"/>
</svg>
