<svg width="17" height="20" viewBox="0 0 17 20" fill="none" xmlns="http://www.w3.org/2000/svg">
<path d="M8.27251 5.74667C7.48251 5.74667 6.26001 4.84833 4.97251 4.88C3.27251 4.9025 1.71418 5.86583 0.838344 7.39167C-0.925822 10.4542 0.383344 14.9775 2.10418 17.4667C2.94834 18.6783 3.94418 20.0417 5.26418 19.9992C6.53084 19.945 7.00584 19.1767 8.54334 19.1767C10.0692 19.1767 10.5017 19.9992 11.8433 19.9667C13.2075 19.945 14.0733 18.7333 14.9067 17.51C15.87 16.1033 16.27 14.7392 16.2917 14.6642C16.2592 14.6533 13.64 13.6467 13.6083 10.6167C13.5867 8.08333 15.675 6.87167 15.7725 6.8175C14.5817 5.07583 12.7533 4.88083 12.1142 4.8375C10.4475 4.7075 9.05168 5.74583 8.27251 5.74583V5.74667ZM11.0875 3.19167C11.79 2.34833 12.2542 1.16917 12.125 0C11.1192 0.0433333 9.90668 0.670833 9.18168 1.515C8.53168 2.26167 7.97001 3.46333 8.12084 4.61C9.23584 4.69667 10.3833 4.03667 11.0867 3.1925L11.0875 3.19167Z" fill="black"/>
</svg>
